<?xml version="1.0" encoding="utf-8"?>
<!-- Generator: Adobe Illustrator 21.1.0, SVG Export Plug-In . SVG Version: 6.00 Build 0)  -->
<svg version="1.1" id="Layer_1" xmlns="http://www.w3.org/2000/svg" xmlns:xlink="http://www.w3.org/1999/xlink" x="0px" y="0px"
	 viewBox="0 0 512 512" style="enable-background:new 0 0 512 512;" xml:space="preserve">
<g>
	<g>
		<path d="M479.9,0H32.1C14.4,0,0,14.4,0,32.1v447.9C0,497.6,14.4,512,32.1,512h447.9c17.7,0,32.1-14.4,32.1-32.1V32.1
			C512,14.4,497.6,0,479.9,0z M490.7,479.9c0,5.9-4.8,10.7-10.7,10.7H32.1c-5.9,0-10.7-4.8-10.7-10.7V32.1c0-5.9,4.8-10.7,10.7-10.7
			h447.9c5.9,0,10.7,4.8,10.7,10.7L490.7,479.9L490.7,479.9z"/>
	</g>
</g>
<g>
	<path d="M137.5,132.5c3.8-3.5,8.8-5.2,15.1-5.2c6.3,0,11.3,1.7,15.1,5.2c3.8,3.5,5.7,8,5.7,13.6c0,5.6-1.9,10.1-5.7,13.6
		c-3.8,3.5-8.8,5.2-15.1,5.2c-6.3,0-11.3-1.7-15.1-5.2c-3.8-3.5-5.7-8-5.7-13.6C131.8,140.5,133.7,136,137.5,132.5z M167.7,200v184
		h-30.5V200H167.7z"/>
	<path d="M337.4,211.1c12.4,8.9,21.1,20.9,26,35.9V136h30.5v248h-30.5v-46.9c-4.9,15-13.6,26.9-26,35.9
		c-12.4,8.9-27.5,13.4-45.4,13.4c-16.3,0-30.8-3.8-43.6-11.4c-12.7-7.6-22.7-18.5-30-32.7c-7.3-14.2-10.9-30.9-10.9-50.1
		c0-19.2,3.6-36,10.9-50.3c7.3-14.3,17.3-25.2,30-32.8c12.7-7.6,27.3-11.4,43.6-11.4C309.9,197.7,325,202.2,337.4,211.1z
		 M255.7,242.8c-11.3,12-16.9,28.4-16.9,49.4c0,21,5.6,37.5,16.9,49.4c11.3,12,26.3,17.9,45.1,17.9c12.1,0,22.8-2.8,32.3-8.4
		c9.5-5.6,16.9-13.5,22.3-23.6c5.4-10.2,8-21.9,8-35.4c0-13.4-2.7-25.2-8-35.5c-5.4-10.3-12.8-18.1-22.3-23.6
		c-9.5-5.5-20.3-8.2-32.3-8.2C282,224.8,266.9,230.8,255.7,242.8z"/>
</g>
</svg>
