<?xml version="1.0" encoding="iso-8859-1"?>
<!-- Generator: Adobe Illustrator 18.0.0, SVG Export Plug-In . SVG Version: 6.00 Build 0)  -->
<!DOCTYPE svg PUBLIC "-//W3C//DTD SVG 1.1//EN" "http://www.w3.org/Graphics/SVG/1.1/DTD/svg11.dtd">
<svg version="1.1" id="Capa_1" xmlns="http://www.w3.org/2000/svg" xmlns:xlink="http://www.w3.org/1999/xlink" x="0px" y="0px"
	 viewBox="0 0 53.993 53.993" style="enable-background:new 0 0 53.993 53.993;" xml:space="preserve">
<path d="M53.419,40.471c-4.592-2.16-8.003-7.24-9.985-10.922c1.6,0.159,3.152,0.22,4.558,0.22c0.999,0,1.924-0.029,2.741-0.071
	c0.981-0.05,1.822-0.605,2.249-1.485c0.432-0.887,0.343-1.944-0.231-2.758c-2.167-3.074-1.821-6.941-1.817-6.98
	c0.003-0.033,0.005-0.066,0.005-0.099c0-3.406,1.222-8.305,2.246-11.815c0.102-0.348,0.08-0.698-0.032-1.022
	c0.079-0.482,0.011-0.886-0.121-1.21c-1.169-2.863-7.633-1.747-13.141,0.503c-3.768,1.538-6.894,3.504-8.557,5.325
	c-0.654-0.484-1.455-0.781-2.329-0.781h-4.13c-1.062,0-2.023,0.427-2.732,1.113c-1.557-1.908-4.771-3.994-8.845-5.657
	C7.785,2.583,1.324,1.469,0.156,4.329C-0.117,5-0.126,6.009,0.916,7.355c0.935,3.304,2.021,7.827,2.026,11.12
	c0.004,0.039,0.351,3.906-1.817,6.98c-0.574,0.814-0.662,1.872-0.23,2.759c0.428,0.878,1.268,1.434,2.248,1.484
	c0.817,0.042,1.742,0.071,2.741,0.071c2.029,0,4.361-0.123,6.705-0.496c-2.011,3.803-5.459,8.999-10.133,11.198
	c-0.424,0.199-0.652,0.666-0.55,1.123c0.102,0.457,0.508,0.782,0.976,0.782h11.411l4.715,8.486c0.177,0.318,0.512,0.514,0.874,0.514
	c0.018,0,0.035,0,0.053-0.001c0.382-0.02,0.719-0.256,0.868-0.608c0.23-0.544,5.015-11.88,7.135-20.687
	c2.12,8.807,6.905,20.144,7.135,20.687c0.149,0.352,0.486,0.588,0.868,0.608c0.018,0.001,0.035,0.001,0.053,0.001
	c0.362,0,0.697-0.196,0.874-0.514l4.715-8.486h11.411c0.468,0,0.874-0.325,0.976-0.782C54.071,41.137,53.843,40.671,53.419,40.471z
	 M51.115,26.607c0.157,0.223,0.183,0.496,0.068,0.731c-0.063,0.128-0.217,0.345-0.555,0.362c-2.304,0.118-5.521,0.131-8.744-0.347
	c-0.018-0.004-0.034-0.012-0.052-0.015c-1.915-0.289-3.614-0.717-5.09-1.28c-0.059-0.022-0.115-0.047-0.173-0.07
	c-0.299-0.118-0.59-0.24-0.869-0.369c-0.111-0.051-0.218-0.107-0.326-0.161c-0.224-0.11-0.446-0.22-0.657-0.337
	c-0.162-0.09-0.316-0.189-0.472-0.285c-0.151-0.093-0.307-0.183-0.451-0.28c-0.297-0.201-0.584-0.412-0.857-0.637v-0.479v-8.125
	c0.04,0.005,0.087,0.003,0.127,0.007c0.236,0.024,0.483,0.038,0.742,0.043c0.051,0.001,0.098,0.005,0.149,0.005
	c0.018,0,0.034,0.002,0.052,0.002c0.314,0,0.644-0.014,0.986-0.04c0.06-0.005,0.126-0.014,0.187-0.019
	c0.305-0.026,0.619-0.06,0.944-0.106c0.124-0.017,0.253-0.041,0.379-0.061c0.274-0.044,0.55-0.091,0.835-0.148
	c0.147-0.029,0.296-0.062,0.446-0.095c0.277-0.06,0.556-0.125,0.842-0.197c0.159-0.04,0.319-0.081,0.48-0.125
	c0.289-0.078,0.582-0.162,0.878-0.251c0.162-0.048,0.322-0.095,0.485-0.147c0.319-0.101,0.643-0.211,0.968-0.325
	c0.143-0.05,0.285-0.096,0.429-0.148c0.47-0.171,0.944-0.351,1.423-0.546c2.892-1.18,5.357-2.576,7.101-3.97
	c-0.773,3.061-1.446,6.48-1.454,9.136C48.89,18.884,48.632,23.084,51.115,26.607z M40.645,6.684
	c6.229-2.542,10.259-2.271,10.533-1.599c0.013,0.032,0.012,0.104-0.014,0.207c-0.007,0.019-0.019,0.035-0.025,0.054
	c-0.053,0.169-0.148,0.357-0.284,0.559c-0.004,0.005-0.008,0.011-0.012,0.017c-0.061,0.09-0.131,0.183-0.208,0.279
	c-0.039,0.048-0.085,0.1-0.129,0.151c-0.056,0.065-0.109,0.129-0.171,0.196c-0.12,0.128-0.254,0.263-0.408,0.407
	c-0.02,0.019-0.044,0.039-0.065,0.058c-0.146,0.135-0.308,0.276-0.487,0.424c-0.036,0.03-0.073,0.06-0.11,0.091
	c-0.172,0.139-0.352,0.279-0.539,0.418c-0.029,0.021-0.055,0.042-0.084,0.063c-0.223,0.163-0.454,0.326-0.696,0.489
	c-0.002,0.001-0.004,0.002-0.005,0.003c-0.228,0.153-0.467,0.305-0.711,0.455c-0.073,0.045-0.149,0.09-0.224,0.135
	c-0.181,0.109-0.365,0.218-0.554,0.326c-0.089,0.051-0.18,0.102-0.271,0.153c-0.187,0.104-0.378,0.207-0.571,0.309
	c-0.093,0.049-0.184,0.098-0.279,0.147c-0.205,0.106-0.415,0.21-0.627,0.314c-0.088,0.043-0.175,0.087-0.265,0.13
	c-0.229,0.11-0.464,0.217-0.699,0.323c-0.08,0.036-0.156,0.073-0.237,0.108c-0.318,0.141-0.641,0.279-0.969,0.412
	c-0.49,0.2-0.969,0.38-1.439,0.549c-0.064,0.023-0.129,0.047-0.192,0.07c-0.446,0.157-0.881,0.299-1.305,0.43
	c-0.073,0.023-0.147,0.045-0.219,0.067c-0.422,0.126-0.834,0.24-1.231,0.34c-0.051,0.013-0.1,0.024-0.151,0.037
	c-0.842,0.206-1.622,0.355-2.325,0.448c-0.023,0.003-0.047,0.007-0.07,0.01c-0.34,0.044-0.659,0.073-0.961,0.091
	c-0.036,0.002-0.073,0.005-0.108,0.006c-0.292,0.015-0.565,0.019-0.816,0.011c-0.029-0.001-0.057-0.003-0.085-0.004
	c-0.251-0.011-0.484-0.032-0.688-0.066c-0.002,0-0.004-0.001-0.007-0.001c0-0.075-0.019-0.147-0.023-0.221
	c-0.012-0.194-0.022-0.388-0.06-0.573c-0.017-0.082-0.052-0.158-0.074-0.239c-0.049-0.175-0.096-0.351-0.167-0.515
	c-0.004-0.009-0.005-0.019-0.009-0.028C33.772,10.328,36.555,8.353,40.645,6.684z M24.873,11.376h4.13
	c0.661,0,1.245,0.334,1.594,0.842c0.1,0.145,0.171,0.304,0.228,0.467c0.013,0.037,0.024,0.074,0.035,0.112
	c0.046,0.167,0.078,0.338,0.078,0.514v0.746v9.383c0,1.067-0.868,1.936-1.935,1.936h-0.797h-0.537h-2.796
	c-1.067,0-1.936-0.868-1.936-1.936v-9.872v-0.257c0-0.104,0.015-0.203,0.031-0.302c0.019-0.1,0.047-0.205,0.085-0.316
	c0.004-0.011,0.003-0.023,0.006-0.034C23.328,11.914,24.036,11.376,24.873,11.376z M2.008,5.085c0.106-0.26,0.775-0.46,1.918-0.46
	c1.807,0,4.798,0.501,8.614,2.059c4.752,1.939,7.828,4.323,8.51,5.731c-0.032,0.137-0.047,0.278-0.064,0.42
	c-0.012,0.088-0.036,0.178-0.041,0.265c-0.029,0.015-0.06,0.03-0.093,0.045c-0.034,0.015-0.067,0.03-0.106,0.044
	c-0.045,0.016-0.099,0.03-0.15,0.044c-0.049,0.014-0.096,0.028-0.151,0.04c-0.049,0.01-0.105,0.018-0.158,0.027
	c-0.069,0.012-0.134,0.025-0.21,0.034c-0.025,0.003-0.054,0.004-0.08,0.007c-0.335,0.036-0.735,0.046-1.195,0.027
	c-0.055-0.002-0.107-0.003-0.163-0.006c-0.124-0.007-0.257-0.018-0.389-0.029c-0.074-0.006-0.146-0.011-0.222-0.019
	c-0.13-0.013-0.267-0.03-0.405-0.047c-0.088-0.011-0.175-0.022-0.266-0.034c-0.136-0.019-0.277-0.042-0.42-0.065
	c-0.102-0.017-0.205-0.034-0.31-0.053c-0.141-0.025-0.286-0.053-0.433-0.083c-0.116-0.023-0.234-0.048-0.353-0.074
	c-0.147-0.032-0.296-0.066-0.449-0.102c-0.128-0.03-0.259-0.063-0.39-0.096c-0.152-0.038-0.305-0.077-0.461-0.12
	c-0.144-0.039-0.291-0.082-0.439-0.124c-0.153-0.044-0.306-0.088-0.463-0.136c-0.165-0.05-0.335-0.106-0.505-0.161
	c-0.147-0.048-0.293-0.094-0.444-0.145c-0.198-0.067-0.402-0.141-0.605-0.215c-0.132-0.047-0.261-0.091-0.395-0.142
	c-0.34-0.127-0.686-0.262-1.041-0.406c-0.413-0.169-0.817-0.345-1.215-0.525c-0.094-0.043-0.187-0.086-0.28-0.129
	c-0.327-0.152-0.649-0.306-0.963-0.463c-0.067-0.034-0.135-0.067-0.201-0.1C7.225,9.705,6.504,9.299,5.845,8.887
	C5.786,8.85,5.73,8.813,5.672,8.776C5.415,8.613,5.169,8.449,4.933,8.284C4.856,8.23,4.778,8.177,4.702,8.122
	C4.453,7.943,4.216,7.765,3.994,7.587C3.967,7.565,3.937,7.543,3.91,7.522c-0.531-0.433-0.976-0.86-1.315-1.269
	C2.593,6.25,2.589,6.248,2.586,6.245C2.034,5.573,1.97,5.177,2.008,5.085z M3.246,27.701c-0.337-0.018-0.491-0.234-0.554-0.362
	c-0.114-0.236-0.089-0.51,0.067-0.732c2.484-3.523,2.225-7.724,2.178-8.277c-0.008-2.489-0.604-5.654-1.3-8.508
	C3.672,9.846,3.712,9.87,3.747,9.894c0.387,0.271,0.791,0.54,1.222,0.805c0.028,0.017,0.059,0.034,0.087,0.051
	c0.405,0.246,0.831,0.488,1.268,0.726c0.095,0.052,0.187,0.103,0.284,0.154c0.454,0.241,0.924,0.476,1.407,0.704
	c0.103,0.049,0.206,0.096,0.31,0.144c0.512,0.237,1.033,0.468,1.569,0.687c0.451,0.184,0.908,0.358,1.369,0.525
	c0.149,0.054,0.299,0.104,0.449,0.157c0.316,0.111,0.632,0.217,0.949,0.318c0.171,0.055,0.341,0.107,0.511,0.159
	c0.313,0.094,0.623,0.182,0.933,0.265c0.155,0.042,0.311,0.086,0.465,0.125c0.43,0.109,0.856,0.207,1.274,0.292
	c0.056,0.011,0.111,0.021,0.167,0.032c0.404,0.078,0.798,0.143,1.184,0.195c0.144,0.02,0.282,0.032,0.423,0.048
	c0.276,0.031,0.546,0.055,0.809,0.071c0.147,0.009,0.291,0.015,0.433,0.018c0.097,0.002,0.2,0.012,0.295,0.012
	c0.23,0,0.452-0.009,0.667-0.024c0.041-0.003,0.079-0.008,0.12-0.011c0.338-0.028,0.658-0.074,0.953-0.142
	c0.013-0.003,0.029-0.003,0.042-0.006v8.243v0.479c-0.25,0.207-0.515,0.398-0.785,0.584c-0.114,0.078-0.232,0.154-0.35,0.229
	c-0.151,0.096-0.306,0.189-0.462,0.279c-0.161,0.093-0.32,0.186-0.489,0.274c-0.05,0.027-0.103,0.05-0.154,0.076
	c-1.29,0.655-2.801,1.184-4.528,1.577c-0.008,0.002-0.014,0.008-0.022,0.01C10.254,27.83,6.068,27.846,3.246,27.701z M19.746,48.073
	l-3.99-7.183c-0.176-0.317-0.511-0.514-0.874-0.514H6.389c3.941-3.048,6.821-7.733,8.697-11.599
	c0.067-0.016,0.125-0.038,0.191-0.055c0.558-0.142,1.111-0.298,1.654-0.477c0.091-0.03,0.176-0.063,0.266-0.094
	c0.485-0.167,0.961-0.35,1.425-0.551c0.069-0.03,0.143-0.058,0.211-0.088c0.473-0.211,0.929-0.445,1.373-0.695
	c0.102-0.058,0.202-0.117,0.302-0.176c0.409-0.243,0.808-0.499,1.185-0.779c0.017-0.013,0.037-0.023,0.054-0.035
	c0.1,0.131,0.211,0.254,0.327,0.372c0.022,0.022,0.046,0.042,0.068,0.064c0.154,0.149,0.319,0.287,0.496,0.409
	c0.018,0.013,0.035,0.027,0.053,0.039c0.185,0.124,0.384,0.229,0.59,0.321c0.039,0.017,0.077,0.035,0.117,0.051
	c0.206,0.084,0.419,0.151,0.64,0.199c0.039,0.008,0.078,0.014,0.117,0.021c0.234,0.044,0.473,0.073,0.719,0.073h1.606
	C25.17,34.204,21.394,43.982,19.746,48.073z M40.993,40.376c-0.363,0-0.698,0.197-0.874,0.514l-3.99,7.183
	c-1.65-4.095-5.431-13.885-6.737-20.716c0.066-0.007,0.127-0.03,0.192-0.04c0.145-0.022,0.286-0.051,0.426-0.088
	c0.118-0.031,0.232-0.066,0.345-0.108c0.135-0.05,0.265-0.108,0.393-0.172c0.106-0.053,0.209-0.107,0.31-0.168
	c0.122-0.075,0.236-0.159,0.349-0.247c0.092-0.072,0.182-0.142,0.268-0.221c0.105-0.098,0.199-0.204,0.293-0.312
	c0.052-0.06,0.115-0.11,0.163-0.174c1.548,1.162,3.498,2.068,5.813,2.721c0.084,0.024,0.167,0.05,0.252,0.073
	c0.246,0.067,0.501,0.127,0.755,0.188c0.152,0.036,0.302,0.074,0.455,0.108c0.222,0.049,0.449,0.095,0.677,0.14
	c0.203,0.04,0.405,0.079,0.609,0.115c0.11,0.019,0.214,0.043,0.325,0.061c1.85,3.71,4.663,8.191,8.476,11.142H40.993z"/>
<g>
</g>
<g>
</g>
<g>
</g>
<g>
</g>
<g>
</g>
<g>
</g>
<g>
</g>
<g>
</g>
<g>
</g>
<g>
</g>
<g>
</g>
<g>
</g>
<g>
</g>
<g>
</g>
<g>
</g>
</svg>
