<svg id="Layer_1" data-name="Layer 1" xmlns="http://www.w3.org/2000/svg" viewBox="0 0 1948.63 417"><defs><style>.cls-1{fill:#fff;}.cls-2{fill:#ff3737;}.cls-3{fill:#1b00ce;}</style></defs><title>repairlog</title><path class="cls-1" d="M303,152.3" transform="translate(-2.87 0)"/><path class="cls-2" d="M0,69.3" transform="translate(-2.87 0)"/><path id="quattro" class="cls-1" d="M524.8,80.4l-6.5,31.2C500.7,86.5,476,73.9,444.4,73.9c-22,0-41.6,5.7-58.8,16.9s-30.6,27-40.2,47.2S331,181,331,206.8q0,34.8,12.8,60.5c8.6,17,20.4,30.2,35.6,39.2,15.1,9.2,32.7,13.7,52.5,13.7,14.2,0,27.1-2.5,38.6-7.5a77.15,77.15,0,0,0,28.8-21.4L489.3,417h84.2l21.4-268.8q3.3-38.55,9.3-67.8ZM461,257.9c-14.8,0-26.3-4.9-34.4-14.6s-12.1-23.8-12.1-42c0-19.8,4.3-35.5,12.8-46.9s20.4-17.2,35.6-17.2c14.5,0,25.7,4.9,33.5,14.6s11.7,24.4,11.7,43.9c0,18.6-4.3,33.7-12.8,45.1s-20,17.1-34.3,17.1ZM773.9,80.4,762.7,209.6c-.9,14.2-4.8,25.5-11.7,33.7s-16.1,12.4-27.9,12.4c-11.2,0-19.2-3.7-24.2-11s-7-17.7-6.1-31.4L704,80.3H619L608.7,218.4c-.6,8.1-.9,13.9-.9,17.6q0,41.4,20,62.8c13.3,14.2,32.9,21.4,58.6,21.4a106.77,106.77,0,0,0,41.8-7.9A80.81,80.81,0,0,0,759.4,290l-2.3,26.5h82.3L858,80.4Zm273.3,0-2.3,26.5q-24.15-33-70.2-33c-22,0-41.6,5.7-58.8,16.9-17.2,11.4-30.6,27-40.2,47.2s-14.4,43-14.4,68.8q0,34.8,12.8,60.5c8.6,17,20.3,30.2,35.6,39.2,15.1,9.2,32.7,13.7,52.5,13.7,14.5,0,27.7-2.6,39.5-7.9a73.39,73.39,0,0,0,28.8-22.3l-2.3,26.5h83.2L1130,80.3l-82.8.1ZM991.4,257.9c-14.8,0-26.4-4.9-34.7-14.6s-12.4-23.8-12.4-42c0-19.8,4.4-35.5,13-46.9s20.4-17.2,35.4-17.2c14.5,0,25.7,4.9,33.5,14.6s11.7,24.4,11.7,43.9c0,18.6-4.2,33.7-12.6,45.1s-19.7,17.1-33.9,17.1Zm277.3-115.2h57.2l4.7-62.3h-56.7L1280.4,0l-86.6,26.9-4.2,53.5h-44.1l-5.1,62.3h44.1l-6.1,75.8c-.4,4.2-.5,8.4-.5,12.6q0,42.3,22.8,65.7c15.1,15.6,37.5,23.5,66.9,23.5,18.2,0,33.2-2.3,44.6-7l5.6-64.2c-9.7,2.2-17.3,3.3-23.2,3.3-10,0-17.9-2.9-23.9-8.6s-8.8-14.1-8.2-25.3Zm173.9,0h57.2l4.7-62.3h-56.7L1454.3,0l-86.5,27-4.2,53.5h-44.1l-5.1,62.3h44.1l-6.1,75.8c-.4,4.2-.5,8.4-.5,12.6q0,42.3,22.8,65.7c15.1,15.6,37.5,23.5,66.9,23.5,18.3,0,33.2-2.3,44.6-7l5.6-64.2c-9.6,2.2-17.3,3.3-23.2,3.3-10,0-17.9-2.9-23.9-8.6s-8.8-14.1-8.2-25.3ZM1671,74.8a88.59,88.59,0,0,0-42.5,10.5c-13.1,7-23,16.5-29.5,28.6l-1.4-33.5h-79.5c.3,4,.5,10.4.5,19,0,10.9-.6,27.1-1.9,48.8l-13.4,168.3h84.2l9.3-118.5c1.6-18.3,7.2-31.3,16.7-39.1s22.9-11.7,39.9-11.7a87.52,87.52,0,0,1,39.1,9.3l5.6-76.7c-6.4-3.3-15.4-5-27.1-5Zm150.9,245.5q39,0,68.3-15.3a108.33,108.33,0,0,0,45.3-44.4q16.05-29,16-69.5,0-34.8-15.5-61.4c-10.4-17.6-25.3-31.4-44.6-41.1s-42-14.6-68.1-14.6-48.9,5.2-68.5,15.5a111.19,111.19,0,0,0-45.8,44.6c-10.9,19.3-16.2,42.3-16.2,69q0,35.25,15.5,61.9c10.4,17.6,25.3,31.3,44.8,40.9s42.5,14.4,68.8,14.4Zm-1.4-62.4c-15.1,0-26.4-4.4-33.7-13s-11-22.1-11-40.4c0-19.5,3.8-35.7,11.4-48.3,7.6-12.8,19.9-19,37-19,14.8,0,26,4.3,33.3,12.8s11,21.6,11,39.2c0,20.1-3.8,36.7-11.4,49.5s-19.9,19.2-36.6,19.2Z" transform="translate(-2.87 0)"/><path class="cls-3" d="M150,224.32a16.88,16.88,0,1,0-16.87-16.88A16.9,16.9,0,0,0,150,224.32Z" transform="translate(-2.87 0)"/><path class="cls-3" d="M138.86,275.47V245a39.4,39.4,0,0,1-21.12-15.35l-28.94,9.4A69.11,69.11,0,0,0,138.86,275.47Z" transform="translate(-2.87 0)"/><path class="cls-3" d="M81.87,217.84l29-9.41c0-.33,0-.66,0-1a39,39,0,0,1,8.1-23.83L101,159a68.77,68.77,0,0,0-19.93,48.44A69.84,69.84,0,0,0,81.87,217.84Z" transform="translate(-2.87 0)"/><path class="cls-3" d="M150,354.61H286a11.18,11.18,0,1,0,0-22.36h-58.1a148.07,148.07,0,0,0,32.8-27.94h76a11.18,11.18,0,1,0,0-22.35h-59.8a146.87,146.87,0,0,0-6.75-159.47h31.71a11.18,11.18,0,0,0,0-22.36H250.63a148.5,148.5,0,0,0-22.71-17.49H335.54a11.18,11.18,0,1,0,0-22.36H150c-81.14,0-147.16,66-147.16,147.16S68.89,354.61,150,354.61ZM95.74,134.09c.2-.17.41-.35.63-.51s.5-.35.76-.51a91.13,91.13,0,0,1,105.81,0c.26.16.51.33.76.51s.42.34.63.51a91.3,91.3,0,1,1-108.59,0Z" transform="translate(-2.87 0)"/><path class="cls-3" d="M211.27,239.09l-28.94-9.4A39.4,39.4,0,0,1,161.21,245v30.44A69.17,69.17,0,0,0,211.27,239.09Z" transform="translate(-2.87 0)"/><path class="cls-3" d="M137,170.45a39.16,39.16,0,0,1,26.11,0L181,145.84a68.86,68.86,0,0,0-61.87,0Z" transform="translate(-2.87 0)"/><path class="cls-3" d="M189.27,207.44c0,.33,0,.66,0,1l29,9.41a69.84,69.84,0,0,0,.78-10.4A68.72,68.72,0,0,0,199,159l-17.87,24.61A39,39,0,0,1,189.27,207.44Z" transform="translate(-2.87 0)"/></svg>