<?xml version="1.0" encoding="iso-8859-1"?>
<!-- Generator: Adobe Illustrator 19.0.0, SVG Export Plug-In . SVG Version: 6.00 Build 0)  -->
<svg version="1.1" id="Capa_1" xmlns="http://www.w3.org/2000/svg" xmlns:xlink="http://www.w3.org/1999/xlink" x="0px" y="0px"
	 viewBox="0 0 512.001 512.001" style="enable-background:new 0 0 512.001 512.001;" xml:space="preserve">
<g>
	<g>
		<path d="M80.983,47.045c-18.744,0-33.993,15.249-33.993,33.993c0,18.744,15.249,33.993,33.993,33.993
			c18.744,0,33.993-15.249,33.993-33.993C114.976,62.294,99.727,47.045,80.983,47.045z M80.983,95.035
			c-7.718,0-13.997-6.279-13.997-13.997c0-7.718,6.279-13.997,13.997-13.997c7.718,0,13.997,6.279,13.997,13.997
			C94.98,88.756,88.701,95.035,80.983,95.035z"/>
	</g>
</g>
<g>
	<g>
		<path d="M91.536,268.98l-0.289-0.713c-2.071-5.119-7.899-7.59-13.017-5.519c-5.119,2.071-7.589,7.898-5.519,13.017l0.288,0.713
			c1.574,3.891,5.318,6.251,9.272,6.251c1.249,0,2.517-0.235,3.746-0.732C91.135,279.926,93.606,274.098,91.536,268.98z"/>
	</g>
</g>
<g>
	<g>
		<path d="M271.92,90.137L136.171,21.847C121.696,8.342,102.294,0.055,80.983,0.055C36.328,0.055,0,36.383,0,81.038
			c0,12.873,3.033,25.046,8.401,35.863c0.006,0.014,0.009,0.029,0.015,0.043l48.822,120.602c1.575,3.889,5.318,6.249,9.271,6.249
			c1.249,0,2.519-0.235,3.748-0.733c5.119-2.072,7.588-7.901,5.517-13.019l-31.012-76.608c10.908,5.48,23.206,8.584,36.221,8.584
			c44.654,0,80.983-36.328,80.983-80.983c0-9.093-1.529-17.83-4.305-25.996l105.274,52.959c1.442,0.726,2.975,1.069,4.485,1.069
			c3.658,0,7.183-2.016,8.939-5.507C278.84,98.628,276.853,92.618,271.92,90.137z M80.983,142.025
			c-33.629,0-60.987-27.358-60.987-60.987s27.358-60.987,60.987-60.987c33.629,0,60.987,27.358,60.987,60.987
			C141.97,114.667,114.612,142.025,80.983,142.025z"/>
	</g>
</g>
<g>
	<g>
		<path d="M488.545,199.142c-0.161-0.092-0.316-0.19-0.484-0.275L353.8,131.326c-4.932-2.479-10.943-0.494-13.425,4.438
			c-2.48,4.933-0.494,10.944,4.438,13.424l101.07,50.843c-13.063,7.636-21.863,21.804-21.863,37.996
			c0,23.401,18.368,42.587,41.443,43.912l-79.854,108.93c0.2-2.94,0.31-5.905,0.31-8.895c0-71.667-58.306-129.972-129.972-129.972
			c-63.847,0-117.089,46.276-127.948,107.049l-21.643-53.464c-2.072-5.119-7.9-7.587-13.018-5.516
			c-5.118,2.073-7.587,7.901-5.516,13.019l48.066,118.733c0.055,0.135,0.132,0.254,0.191,0.385
			c19.685,46.796,66.001,79.738,119.868,79.738c40.867,0,77.383-18.965,101.226-48.551c0.011,0.013,0.022,0.023,0.033,0.037
			l0.632-0.862c2.062-2.6,4.029-5.279,5.891-8.035l138.257-188.593c1.016-1.235,1.959-2.53,2.838-3.872
			c0.228-0.312,0.431-0.635,0.618-0.963c4.155-6.714,6.561-14.619,6.561-23.078C512.001,221.186,502.482,206.531,488.545,199.142z
			 M347.395,442.994l-5.545,7.563c-20.17,25.213-51.181,41.393-85.905,41.393c-60.641,0-109.977-49.336-109.977-109.977
			c0-60.641,49.336-109.977,109.977-109.977c60.641,0,109.977,49.336,109.977,109.977
			C365.922,404.532,359.092,425.522,347.395,442.994z M488.432,250.608l-2.224,3.032c-4.403,5.127-10.926,8.384-18.199,8.384
			c-13.23,0-23.995-10.765-23.995-23.995c0-13.23,10.765-23.995,23.995-23.995c13.23,0,23.995,10.765,23.995,23.995
			C492.004,242.639,490.695,246.947,488.432,250.608z"/>
	</g>
</g>
<g>
	<g>
		<path d="M311.942,110.27l-0.128-0.064c-4.935-2.478-10.944-0.484-13.42,4.451c-2.477,4.935-0.484,10.943,4.451,13.42l0.128,0.064
			c1.439,0.723,2.969,1.064,4.477,1.064c3.662,0,7.188-2.02,8.943-5.515C318.87,118.755,316.877,112.746,311.942,110.27z"/>
	</g>
</g>
<g>
	<g>
		<path d="M255.945,350.313c-17.457,0-31.66,14.203-31.66,31.66s14.203,31.66,31.66,31.66s31.66-14.203,31.66-31.66
			S273.403,350.313,255.945,350.313z M255.945,393.637c-6.432,0-11.664-5.232-11.664-11.664s5.232-11.665,11.664-11.665
			s11.665,5.232,11.665,11.665S262.377,393.637,255.945,393.637z"/>
	</g>
</g>
<g>
	<g>
		<path d="M336.345,360.689l-9.159-2.281l-3.993-9.635l4.93-8.201c2.359-3.925,1.751-8.951-1.479-12.199l-16.695-16.796
			c-3.243-3.263-8.296-3.891-12.241-1.521l-8.265,4.968l-9.635-3.993l-2.346-9.419c-1.11-4.455-5.111-7.581-9.702-7.581h-23.633
			c-4.591,0-8.592,3.126-9.702,7.581l-2.346,9.419l-9.635,3.993l-8.265-4.968c-3.944-2.372-8.998-1.743-12.241,1.521l-16.695,16.796
			c-3.228,3.248-3.837,8.274-1.479,12.199l4.93,8.201l-3.993,9.635l-9.159,2.281c-4.467,1.113-7.597,5.133-7.581,9.738l0.086,23.784
			c0.017,4.577,3.139,8.559,7.581,9.665l9.073,2.26l3.993,9.635l-4.741,7.887c-2.372,3.944-1.744,8.997,1.521,12.241l16.947,16.845
			c3.248,3.228,8.274,3.838,12.199,1.479l7.823-4.703l9.635,3.993l2.198,8.821c1.11,4.455,5.111,7.581,9.702,7.581h23.931
			c4.591,0,8.591-3.126,9.702-7.581l2.198-8.821l9.635-3.993l7.823,4.703c3.925,2.359,8.951,1.75,12.199-1.479l16.947-16.845
			c3.264-3.244,3.892-8.297,1.521-12.241l-4.741-7.887l3.993-9.635l9.073-2.26c4.444-1.107,7.566-5.088,7.583-9.665l0.086-23.784
			C343.944,365.823,340.813,361.803,336.345,360.689z M323.873,386.356l-6.411,1.598c-3.075,0.766-5.606,2.945-6.82,5.874
			l-7.852,18.948c-1.214,2.929-0.966,6.261,0.667,8.978l3.301,5.492l-5.865,5.831l-5.47-3.288c-2.717-1.633-6.049-1.881-8.978-0.667
			l-18.948,7.852c-2.928,1.214-5.107,3.744-5.874,6.82l-1.527,6.131h-8.305l-1.527-6.131c-0.767-3.075-2.945-5.606-5.874-6.82
			l-18.948-7.852c-2.93-1.214-6.262-0.966-8.978,0.667l-5.47,3.288l-5.865-5.831l3.301-5.492c1.634-2.717,1.881-6.049,0.667-8.978
			l-7.852-18.948c-1.214-2.928-3.744-5.107-6.82-5.874l-6.411-1.598l-0.029-8.158l6.44-1.604c3.075-0.767,5.606-2.945,6.82-5.874
			l7.852-18.948c1.214-2.929,0.966-6.262-0.667-8.979l-3.515-5.847l5.68-5.714l5.869,3.527c2.717,1.633,6.049,1.882,8.978,0.667
			l18.948-7.852c2.928-1.214,5.107-3.744,5.874-6.82l1.676-6.728h8.007l1.676,6.728c0.767,3.076,2.945,5.606,5.874,6.82
			l18.948,7.852c2.93,1.214,6.261,0.966,8.978-0.667l5.869-3.527l5.68,5.714l-3.515,5.847c-1.634,2.717-1.881,6.05-0.667,8.979
			l7.852,18.948c1.214,2.928,3.744,5.107,6.82,5.874l6.44,1.604L323.873,386.356z"/>
	</g>
</g>
<g>
</g>
<g>
</g>
<g>
</g>
<g>
</g>
<g>
</g>
<g>
</g>
<g>
</g>
<g>
</g>
<g>
</g>
<g>
</g>
<g>
</g>
<g>
</g>
<g>
</g>
<g>
</g>
<g>
</g>
</svg>
