<?xml version="1.0" encoding="iso-8859-1"?>
<!-- Generator: Adobe Illustrator 19.0.0, SVG Export Plug-In . SVG Version: 6.00 Build 0)  -->
<svg version="1.1" id="Capa_1" xmlns="http://www.w3.org/2000/svg" xmlns:xlink="http://www.w3.org/1999/xlink" x="0px" y="0px"
	 viewBox="0 0 512 512" style="enable-background:new 0 0 512 512;" xml:space="preserve">
<path style="fill:#FFE17D;" d="M196.392,1.334L11.581,90.553c-2.317,1.119-3.79,3.465-3.79,6.038v219.536
	c0,2.573,1.473,4.919,3.79,6.038l184.811,89.219c3.683,1.778,7.976,1.778,11.659,0l184.811-89.219
	c2.317-1.119,3.79-3.465,3.79-6.038V96.59c0-2.573-1.473-4.919-3.79-6.038L208.051,1.334C204.368-0.445,200.075-0.445,196.392,1.334
	z"/>
<path style="fill:#FFC350;" d="M8.906,92.92c-0.705,1.073-1.115,2.336-1.115,3.67v219.536c0,2.573,1.473,4.919,3.79,6.038
	l184.811,89.219c1.841,0.889,3.836,1.334,5.83,1.334V186.245L8.906,92.92z"/>
<path style="fill:#FFD164;" d="M395.537,92.92c0.705,1.073,1.115,2.336,1.115,3.67v219.536c0,2.573-1.473,4.919-3.79,6.038
	l-184.811,89.219c-1.841,0.889-3.836,1.334-5.83,1.334V186.245L395.537,92.92z"/>
<path style="fill:#FFE17D;" d="M63.097,304.424c-0.976,0-1.971-0.216-2.907-0.668L31.657,289.98
	c-3.339-1.611-4.734-5.618-3.123-8.95c1.604-3.333,5.624-4.721,8.95-3.123l28.533,13.776c3.339,1.611,4.734,5.618,3.123,8.95
	C67.988,303.03,65.591,304.424,63.097,304.424z"/>
<path style="fill:#FFF6D8;" d="M89.358,287.329c-0.976,0-1.971-0.216-2.907-0.668L31.696,260.23
	c-3.333-1.611-4.734-5.618-3.123-8.95c1.604-3.326,5.631-4.721,8.95-3.123l54.755,26.432c3.333,1.611,4.734,5.618,3.123,8.95
	C94.249,285.935,91.853,287.329,89.358,287.329z"/>
<polygon style="fill:#FF8087;" points="330.026,124.438 136.031,30.72 84.893,55.507 279.323,149.37 "/>
<path style="fill:#E6646E;" d="M279.323,149.37v72.714c0,2.472,2.584,4.093,4.81,3.019l42.103-20.325
	c2.317-1.119,3.79-3.465,3.79-6.038v-74.302L279.323,149.37z"/>
<circle style="fill:#EDEBED;" cx="388.38" cy="396.17" r="115.83"/>
<circle style="fill:#FFFFFF;" cx="388.38" cy="396.17" r="95.15"/>
<circle style="fill:#EDEBED;" cx="388.38" cy="396.17" r="33.09"/>
<path style="fill:#6F6571;" d="M462.84,404.443h-74.463c-4.573,0-8.274-3.701-8.274-8.274v-74.463c0-4.573,3.701-8.274,8.274-8.274
	s8.274,3.701,8.274,8.274v66.189h66.189c4.573,0,8.274,3.701,8.274,8.274S467.414,404.443,462.84,404.443z"/>
<circle style="fill:#AEA8AF;" cx="388.38" cy="396.17" r="16.547"/>
<g>
</g>
<g>
</g>
<g>
</g>
<g>
</g>
<g>
</g>
<g>
</g>
<g>
</g>
<g>
</g>
<g>
</g>
<g>
</g>
<g>
</g>
<g>
</g>
<g>
</g>
<g>
</g>
<g>
</g>
</svg>
