<?xml version="1.0" encoding="iso-8859-1"?>
<!-- Generator: Adobe Illustrator 19.0.0, SVG Export Plug-In . SVG Version: 6.00 Build 0)  -->
<svg version="1.1" id="Capa_1" xmlns="http://www.w3.org/2000/svg" xmlns:xlink="http://www.w3.org/1999/xlink" x="0px" y="0px"
	 viewBox="0 0 511.999 511.999" style="enable-background:new 0 0 511.999 511.999;" xml:space="preserve">
<path style="fill:#FFE17D;" d="M204.304,1.343L18.19,91.191c-2.333,1.127-3.816,3.489-3.816,6.08v221.084
	c0,2.591,1.483,4.954,3.816,6.08l186.114,89.848c3.709,1.791,8.032,1.791,11.741,0l186.114-89.848
	c2.333-1.127,3.816-3.489,3.816-6.08V97.271c0-2.591-1.483-4.954-3.816-6.08L216.045,1.343
	C212.336-0.448,208.013-0.448,204.304,1.343z"/>
<path style="fill:#FFC350;" d="M15.496,93.575c-0.71,1.081-1.123,2.352-1.123,3.696v221.083c0,2.591,1.483,4.954,3.816,6.08
	l186.113,89.848c1.854,0.895,3.863,1.343,5.871,1.343V187.558L15.496,93.575z"/>
<path style="fill:#FFD164;" d="M404.852,93.575c0.71,1.081,1.123,2.352,1.123,3.696v221.083c0,2.591-1.483,4.954-3.816,6.08
	l-186.113,89.848c-1.854,0.895-3.863,1.343-5.871,1.343V187.558L404.852,93.575z"/>
<path style="fill:#FFE17D;" d="M70.069,306.57c-0.982,0-1.985-0.218-2.928-0.673l-28.734-13.873
	c-3.363-1.622-4.767-5.657-3.145-9.013c1.615-3.356,5.664-4.754,9.013-3.145l28.734,13.873c3.363,1.622,4.767,5.657,3.145,9.013
	C74.994,305.166,72.581,306.57,70.069,306.57z"/>
<path style="fill:#FFF6D8;" d="M96.516,289.355c-0.982,0-1.985-0.218-2.928-0.673l-55.141-26.618
	c-3.356-1.622-4.767-5.657-3.145-9.013c1.615-3.349,5.67-4.754,9.013-3.145l55.141,26.618c3.356,1.622,4.767,5.657,3.145,9.013
	C101.441,287.95,99.028,289.355,96.516,289.355z"/>
<polygon style="fill:#DBD9DC;" points="338.879,125.315 143.517,30.937 92.019,55.899 287.819,150.423 "/>
<g>
	<path style="fill:#C0BCC1;" d="M287.819,150.423v73.227c0,2.489,2.602,4.122,4.844,3.04l42.4-20.469
		c2.333-1.127,3.816-3.489,3.816-6.08v-74.826L287.819,150.423z"/>
	<path style="fill:#C0BCC1;" d="M291.85,321.357l-9.585,19.17c-1.029,2.058-0.195,4.56,1.863,5.589l81.64,40.82l49.797-49.797
		L300.75,316.878C297.12,316.237,293.499,318.059,291.85,321.357z"/>
</g>
<path style="fill:#C9C6CA;" d="M451.134,372.708l-49.797,49.796l40.82,81.64c1.029,2.058,3.531,2.892,5.589,1.863l19.17-9.585
	c3.298-1.649,5.12-5.269,4.479-8.9L451.134,372.708z"/>
<path style="fill:#DBD9DC;" d="M370.942,452.9L490.26,333.582c9.822-9.822,9.822-25.747,0-35.569l0,0
	c-9.822-9.822-25.747-9.822-35.569,0L335.373,417.331l-36.523-1.739c-2.688-0.128-5.305,0.884-7.207,2.786l-14.148,14.148
	c-2.044,2.044-1.436,5.498,1.184,6.721l47.964,22.383l22.383,47.964c1.223,2.62,4.677,3.228,6.721,1.184l14.148-14.148
	c1.903-1.903,2.914-4.52,2.786-7.207L370.942,452.9z"/>
<path style="fill:#C9C6CA;" d="M490.259,298.013c-9.822-9.822-25.747-9.822-35.569,0L335.373,417.331l-36.523-1.739
	c-2.688-0.128-5.305,0.884-7.208,2.786l-14.148,14.149c-2.044,2.044-1.436,5.498,1.184,6.721l47.964,22.383L490.259,298.013
	L490.259,298.013z"/>
<g>
</g>
<g>
</g>
<g>
</g>
<g>
</g>
<g>
</g>
<g>
</g>
<g>
</g>
<g>
</g>
<g>
</g>
<g>
</g>
<g>
</g>
<g>
</g>
<g>
</g>
<g>
</g>
<g>
</g>
</svg>
