<?xml version="1.0" encoding="iso-8859-1"?>
<!-- Generator: Adobe Illustrator 19.0.0, SVG Export Plug-In . SVG Version: 6.00 Build 0)  -->
<svg version="1.1" id="Capa_1" xmlns="http://www.w3.org/2000/svg" xmlns:xlink="http://www.w3.org/1999/xlink" x="0px" y="0px"
	 viewBox="0 0 512 512" style="enable-background:new 0 0 512 512;" xml:space="preserve">
<path style="fill:#867E88;" d="M421.161,512H90.839c-18.243,0-33.032-14.789-33.032-33.032V33.032C57.806,14.789,72.595,0,90.839,0
	h330.323c18.243,0,33.032,14.789,33.032,33.032v445.935C454.194,497.211,439.405,512,421.161,512z"/>
<g>
	<path style="fill:#6F6571;" d="M421.161,0H90.839C72.595,0,57.806,14.788,57.806,33.032v165.161h396.387V33.032
		C454.194,14.788,439.405,0,421.161,0z"/>
	<path style="fill:#6F6571;" d="M90.839,437.677V0C72.595,0,57.806,14.788,57.806,33.032v445.935
		c0,18.243,14.789,33.032,33.032,33.032h330.323c18.243,0,33.032-14.789,33.032-33.032H132.129
		C109.325,478.968,90.839,460.481,90.839,437.677z"/>
</g>
<path style="fill:#5D5360;" d="M57.806,33.032v165.161h33.032V0C72.595,0,57.806,14.788,57.806,33.032z"/>
<g>
	<circle style="fill:#9C969E;" cx="214.71" cy="272.52" r="24.774"/>
	<circle style="fill:#9C969E;" cx="214.71" cy="355.1" r="24.774"/>
	<circle style="fill:#9C969E;" cx="214.71" cy="437.68" r="24.774"/>
	<circle style="fill:#9C969E;" cx="297.29" cy="272.52" r="24.774"/>
	<circle style="fill:#9C969E;" cx="297.29" cy="355.1" r="24.774"/>
	<circle style="fill:#9C969E;" cx="297.29" cy="437.68" r="24.774"/>
	<circle style="fill:#9C969E;" cx="132.13" cy="272.52" r="24.774"/>
	<circle style="fill:#9C969E;" cx="132.13" cy="355.1" r="24.774"/>
	<circle style="fill:#9C969E;" cx="132.13" cy="437.68" r="24.774"/>
</g>
<circle style="fill:#F2A275;" cx="379.87" cy="272.52" r="24.774"/>
<g>
	<path style="fill:#FFD164;" d="M379.871,462.452L379.871,462.452c-13.682,0-24.774-11.092-24.774-24.774v-82.581
		c0-13.682,11.092-24.774,24.774-24.774l0,0c13.682,0,24.774,11.092,24.774,24.774v82.581
		C404.645,451.36,393.553,462.452,379.871,462.452z"/>
	<path style="fill:#FFD164;" d="M396.387,148.645H115.613c-4.561,0-8.258-3.697-8.258-8.258V57.806c0-4.561,3.697-8.258,8.258-8.258
		h280.774c4.561,0,8.258,3.697,8.258,8.258v82.581C404.645,144.948,400.948,148.645,396.387,148.645z"/>
</g>
<rect x="132.13" y="74.32" style="fill:#FFE17D;" width="247.74" height="49.548"/>
<g>
</g>
<g>
</g>
<g>
</g>
<g>
</g>
<g>
</g>
<g>
</g>
<g>
</g>
<g>
</g>
<g>
</g>
<g>
</g>
<g>
</g>
<g>
</g>
<g>
</g>
<g>
</g>
<g>
</g>
</svg>
