<?xml version="1.0" encoding="iso-8859-1"?>
<!-- Generator: Adobe Illustrator 19.0.0, SVG Export Plug-In . SVG Version: 6.00 Build 0)  -->
<svg version="1.1" id="Capa_1" xmlns="http://www.w3.org/2000/svg" xmlns:xlink="http://www.w3.org/1999/xlink" x="0px" y="0px"
	 viewBox="0 0 512 512" style="enable-background:new 0 0 512 512;" xml:space="preserve">
<g>
	<g>
		<g>
			<path d="M424.365,64h12.969C443.229,64,448,59.229,448,53.333V10.667C448,4.771,443.229,0,437.333,0h-59.74
				c-13.948,0-27.042,6.813-35.01,18.208c-7.958,11.396-9.844,26-5.063,39.073C354.885,104.698,384,194.948,384,266.667
				c0,84.24-50.24,138.667-128,138.667s-128-54.427-128-138.667c0-71.625,29.135-161.938,46.51-209.396
				c4.781-13.083,2.885-27.677-5.073-39.063C161.469,6.802,148.375,0,134.427,0h-59.76C68.771,0,64,4.771,64,10.667v42.667
				C64,59.229,68.771,64,74.667,64h12.969c-28.354,49.094-66.302,137.406-66.302,224c0,133.99,121.344,224,234.667,224
				s234.667-90.01,234.667-224C490.667,201.406,452.719,113.094,424.365,64z M256,490.667
				c-103.021,0-213.333-81.438-213.333-202.667c0-80.438,37.802-175.01,72.938-228.833c2.135-3.281,2.302-7.469,0.438-10.917
				c-1.865-3.438-5.458-5.583-9.375-5.583H85.333V21.333h49.094c7.094,0,13.479,3.313,17.521,9.094
				c4.031,5.771,4.948,12.875,2.521,19.51c-17.854,48.792-47.802,141.823-47.802,216.729c0,95.698,60.01,160,149.333,160
				s149.333-64.302,149.333-160c0-71.25-25.979-157.177-47.771-216.719c-2.438-6.635-1.521-13.75,2.51-19.521
				c4.042-5.781,10.427-9.094,17.521-9.094h49.073v21.333h-21.333c-3.917,0-7.51,2.146-9.375,5.583
				c-1.865,3.448-1.698,7.635,0.438,10.917C431.531,112.99,469.333,207.563,469.333,288
				C469.333,409.229,359.021,490.667,256,490.667z"/>
			<circle cx="256" cy="458.667" r="10.667"/>
			<circle cx="394.667" cy="394.667" r="10.667"/>
			<circle cx="74.667" cy="288" r="10.667"/>
			<circle cx="437.333" cy="288" r="10.667"/>
			<circle cx="416" cy="160" r="10.667"/>
			<circle cx="96" cy="160" r="10.667"/>
			<circle cx="117.333" cy="394.667" r="10.667"/>
		</g>
	</g>
</g>
<g>
</g>
<g>
</g>
<g>
</g>
<g>
</g>
<g>
</g>
<g>
</g>
<g>
</g>
<g>
</g>
<g>
</g>
<g>
</g>
<g>
</g>
<g>
</g>
<g>
</g>
<g>
</g>
<g>
</g>
</svg>
