<?xml version="1.0" encoding="utf-8"?>
<!-- Generator: Adobe Illustrator 21.1.0, SVG Export Plug-In . SVG Version: 6.00 Build 0)  -->
<svg version="1.1" id="Layer_1" xmlns="http://www.w3.org/2000/svg" xmlns:xlink="http://www.w3.org/1999/xlink" x="0px" y="0px"
	 viewBox="0 0 100 100" style="enable-background:new 0 0 100 100;" xml:space="preserve">
<g>
	<path d="M4.6,27.5v-7.7h18.2v63.5h-8.6V27.5H4.6z"/>
	<path d="M41.8,73.6v9.6h-9.9v-9.6H41.8z"/>
	<path d="M49.8,51.1c0-10.1,1.7-18,5-23.7c3.4-5.7,9.2-8.5,17.5-8.5s14.1,2.9,17.5,8.6c3.4,5.7,5.1,13.6,5.1,23.7
		c0,10.2-1.7,18.2-5.1,23.8c-3.4,5.7-9.2,8.5-17.5,8.5S58.2,80.7,54.8,75C51.4,69.3,49.8,61.3,49.8,51.1z M86.8,51.1
		c0-5.2-0.4-9.5-1.1-13c-0.8-3.5-2.2-6.3-4.3-8.3c-2.1-2.1-5.1-3.1-9.1-3.1c-3.9,0-6.9,1-9,3.1c-2.1,2.1-3.5,4.8-4.3,8.3
		c-0.8,3.5-1.1,7.8-1.1,13c0,5.2,0.4,9.6,1.1,13.1c0.7,3.5,2.2,6.3,4.3,8.4c2.1,2.1,5.1,3.1,9,3.1c4,0,7-1,9.1-3.1
		c2.1-2.1,3.5-4.9,4.3-8.4C86.4,60.7,86.8,56.4,86.8,51.1z"/>
</g>
<g>
</g>
<g>
</g>
<g>
</g>
<g>
</g>
<g>
</g>
</svg>
