<?xml version="1.0"?>
<svg xmlns="http://www.w3.org/2000/svg" xmlns:xlink="http://www.w3.org/1999/xlink" version="1.1" id="Capa_1" x="0px" y="0px" viewBox="0 0 445.917 445.917" style="enable-background:new 0 0 445.917 445.917;" xml:space="preserve" width="512px" height="512px"><g><g>
	<g>
		<rect x="361.994" y="384.647" transform="matrix(0.7071 -0.7071 0.7071 0.7071 -169.2747 376.6293)" width="16" height="16" data-original="#000000" class="active-path" data-old_color="#000000" fill="#FF2121"/>
	</g>
</g><g>
	<g>
		<rect x="67.877" y="45.257" transform="matrix(0.7071 -0.7071 0.7071 0.7071 -15.4342 69.252)" width="16" height="16" data-original="#000000" class="active-path" data-old_color="#000000" fill="#FF2121"/>
	</g>
</g><g>
	<g>
		<path d="M443.574,364.382l-45.312-45.312c32.927-59.844,32.927-132.38,0-192.224l45.312-45.312c3.123-3.124,3.123-8.188,0-11.312    l-67.88-67.88c-3.124-3.123-8.188-3.123-11.312,0l-45.32,45.312c-59.839-32.927-132.369-32.927-192.208,0L81.534,2.342    c-3.124-3.123-8.188-3.123-11.312,0l-67.88,67.88c-3.123,3.124-3.123,8.188,0,11.312l45.312,45.312    c-32.927,59.844-32.927,132.38,0,192.224L2.342,364.382c-3.123,3.124-3.123,8.188,0,11.312l67.88,67.88    c3.124,3.123,8.188,3.123,11.312,0l45.312-45.312c59.844,32.927,132.38,32.927,192.224,0l45.312,45.312    c3.124,3.123,8.188,3.123,11.312,0l67.88-67.88C446.697,372.57,446.697,367.506,443.574,364.382z M406.958,222.958    c-0.006,29.34-7.028,58.254-20.48,84.328l-10.784-10.792c-0.379-0.332-0.788-0.627-1.224-0.88    c10.851-22.684,16.485-47.51,16.488-72.656c0-6.585-0.382-13.164-1.144-19.704l-15.888,1.848    c0.688,5.927,1.033,11.889,1.032,17.856c-0.013,24.144-5.772,47.938-16.8,69.416l-23.928-3.416l-66.016-66l65.992-66l36.96-5.28    c1.714-0.242,3.302-1.034,4.528-2.256l10.784-10.792C399.931,164.705,406.953,193.618,406.958,222.958z M222.958,38.958    c29.338,0.004,58.249,7.026,84.32,20.48l-10.784,10.784c-0.332,0.379-0.627,0.788-0.88,1.224    c-45.943-21.984-99.369-21.984-145.312,0c-0.253-0.436-0.548-0.845-0.88-1.224l-10.784-10.784    C164.709,45.985,193.621,38.962,222.958,38.958z M292.374,87.758l-3.416,23.928l-66,66.016l-66-65.992l-3.416-23.952    C197.101,65.326,248.815,65.326,292.374,87.758z M38.958,222.958c0.006-29.34,7.028-58.254,20.48-84.328l10.784,10.792    c0.379,0.332,0.788,0.627,1.224,0.88c-21.984,45.943-21.984,99.369,0,145.312c-0.434,0.256-0.843,0.55-1.224,0.88l-10.784,10.792    C45.986,281.212,38.964,252.298,38.958,222.958z M87.758,153.542l23.928,3.416l66.016,66l-65.992,66l-23.952,3.416    C65.326,248.815,65.326,197.101,87.758,153.542z M222.958,406.958c-29.341-0.002-58.255-7.024-84.328-20.48l10.792-10.784    c0.33-0.381,0.624-0.79,0.88-1.224c45.943,21.984,99.369,21.984,145.312,0c0.253,0.436,0.548,0.845,0.88,1.224l10.792,10.784    C281.213,399.934,252.299,406.956,222.958,406.958z M153.545,358.136l3.413-23.906l66-66.016l66,65.992l3.416,23.928    C248.816,380.566,197.104,380.567,153.545,358.136z M370.038,426.614l-60.344-60.336l-5.28-36.968    c-0.246-1.712-1.041-3.298-2.264-4.52l-73.536-73.536c-3.124-3.123-8.188-3.123-11.312,0l-73.544,73.528    c-1.223,1.222-2.018,2.808-2.264,4.52l-5.28,36.968l-37.712,37.704l-22.624-22.616l-11.32,11.304l22.632,22.632l-11.32,11.312    l-56.56-56.568l60.312-60.344l36.968-5.28c1.712-0.246,3.298-1.041,4.52-2.264l73.536-73.536c3.123-3.124,3.123-8.188,0-11.312    l-73.512-73.544c-1.222-1.223-2.808-2.018-4.52-2.264l-36.968-5.28L41.942,98.51l22.616-22.632l-11.304-11.32l-22.632,22.64    L19.31,75.878L75.878,19.31l60.344,60.336l5.28,36.968c0.246,1.712,1.041,3.298,2.264,4.52l73.536,73.536    c3.124,3.123,8.188,3.123,11.312,0l73.544-73.536c1.223-1.222,2.018-2.808,2.264-4.52l5.28-36.968l37.712-37.704l22.624,22.616    l11.32-11.304l-22.64-22.632l11.32-11.312l56.568,56.568l-60.336,60.344l-36.968,5.28c-1.712,0.246-3.298,1.041-4.52,2.264    l-73.536,73.536c-3.123,3.124-3.123,8.188,0,11.312l73.536,73.544c1.222,1.223,2.808,2.018,4.52,2.264l36.968,5.28l37.704,37.712    l-22.616,22.624l11.304,11.32l22.632-22.632l11.312,11.32L370.038,426.614z" data-original="#000000" class="active-path" data-old_color="#000000" fill="#FF2121"/>
	</g>
</g><g>
	<g>
		<rect x="45.229" y="362.011" transform="matrix(0.7071 -0.7071 0.7071 0.7071 -246.0471 146.0121)" width="16" height="16" data-original="#000000" class="active-path" data-old_color="#000000" fill="#FF2121"/>
	</g>
</g><g>
	<g>
		<rect x="384.641" y="67.893" transform="matrix(0.707 -0.7072 0.7072 0.707 61.3774 299.9266)" width="16" height="16" data-original="#000000" class="active-path" data-old_color="#000000" fill="#FF2121"/>
	</g>
</g><g>
	<g>
		<path d="M380.278,163.894l-14.984,5.6c2.433,6.477,4.416,13.114,5.936,19.864l15.608-3.512    C385.154,178.388,382.962,171.054,380.278,163.894z" data-original="#000000" class="active-path" data-old_color="#000000" fill="#FF2121"/>
	</g>
</g></g> </svg>
